<?xml version="1.0" encoding="iso-8859-1"?>
<!-- Generator: Adobe Illustrator 16.0.0, SVG Export Plug-In . SVG Version: 6.00 Build 0)  -->
<!DOCTYPE svg PUBLIC "-//W3C//DTD SVG 1.1//EN" "http://www.w3.org/Graphics/SVG/1.1/DTD/svg11.dtd">
<svg version="1.1" id="Capa_1" xmlns="http://www.w3.org/2000/svg" xmlns:xlink="http://www.w3.org/1999/xlink" x="0px" y="0px"
	 width="429.793px" height="429.793px" viewBox="0 0 429.793 429.793" style="enable-background:new 0 0 429.793 429.793;"
	 xml:space="preserve">
<g>
	<g>
		<path d="M299.972,346.716H75.05l-1.905,11.938c-0.454,2.84-0.068,5.752,1.108,8.377l24.207,54.021
			c2.383,5.316,7.667,8.74,13.495,8.74h151.11c5.828,0,11.113-3.424,13.496-8.74l24.207-54.021c1.176-2.625,1.562-5.537,1.107-8.377
			L299.972,346.716z"/>
		<path d="M247.233,109.055l3.127-6.03c1.058-2.041,1.262-4.419,0.565-6.611c-0.694-2.19-2.231-4.017-4.272-5.075l-50.32-26.081
			c-2.041-1.057-4.419-1.261-6.611-0.566c-2.191,0.695-4.016,2.232-5.075,4.274l-3.077,5.938L37.552,0l-12,23.072l123.601,64.285
			c-0.487,0.63-0.929,1.309-1.304,2.044l-11.822,23.165c-1.567,3.071-1.85,6.64-0.787,9.921c1.063,3.28,3.386,6.004,6.458,7.571
			l28.474,14.53v49.929h-58.218c-7.268,0-13.458,5.28-14.603,12.458L79.517,318.73h215.988l-17.836-111.755
			c-1.146-7.178-7.336-12.458-14.604-12.458h-58.216v-32.233l20.938,10.686c1.896,0.966,3.911,1.424,5.899,1.424
			c4.732,0,9.295-2.592,11.594-7.095l11.822-23.165c0.227-0.444,0.418-0.901,0.592-1.364l136.547,71.019l12-23.073L247.233,109.055z
			 M256.106,291.605H118.914l11.165-69.963H244.94L256.106,291.605z"/>
	</g>
</g>
<g>
</g>
<g>
</g>
<g>
</g>
<g>
</g>
<g>
</g>
<g>
</g>
<g>
</g>
<g>
</g>
<g>
</g>
<g>
</g>
<g>
</g>
<g>
</g>
<g>
</g>
<g>
</g>
<g>
</g>
</svg>
